<svg width="20" height="20" viewBox="0 0 20 20" fill="none" xmlns="http://www.w3.org/2000/svg">
<path d="M5.22656 5.27344C5.22656 2.64181 7.36837 0.5 10 0.5C12.6316 0.5 14.7734 2.64181 14.7734 5.27344C14.7734 7.90507 12.6316 10.0469 10 10.0469C7.36837 10.0469 5.22656 7.90507 5.22656 5.27344Z" stroke="#A0A3B1"/>
<path d="M11.1719 12.2188C13.0676 12.2188 14.8538 12.971 16.2049 14.3428L16.5503 14.0027L16.2049 14.3428C17.55 15.7086 18.2891 17.5083 18.2891 19.4141C18.2891 19.4615 18.2506 19.5 18.2031 19.5H1.79688C1.74942 19.5 1.71094 19.4615 1.71094 19.4141C1.71094 17.5083 2.45002 15.7086 3.79507 14.3428L3.43883 13.992L3.79507 14.3428C5.14619 12.971 6.9324 12.2188 8.82812 12.2188H11.1719Z" stroke="#A0A3B1"/>
</svg>
