<svg width="22" height="22" viewBox="0 0 22 22" fill="none" xmlns="http://www.w3.org/2000/svg">
<g clip-path="url(#clip0)">
<path d="M16.8014 10.8047H18.336C18.6829 10.8047 18.9652 10.5224 18.9652 10.1755V8.64089C18.9652 8.29396 18.6829 8.0117 18.336 8.0117H16.8014C16.4545 8.0117 16.1722 8.29396 16.1722 8.64089V10.1755C16.1722 10.5224 16.4545 10.8047 16.8014 10.8047V10.8047ZM16.8168 8.65623H18.3207V10.1601H16.8168V8.65623ZM16.8014 14.8867H18.336C18.6829 14.8867 18.9652 14.6044 18.9652 14.2575V12.7229C18.9652 12.376 18.6829 12.0937 18.336 12.0937H16.8014C16.4545 12.0937 16.1722 12.376 16.1722 12.7229V14.2575C16.1722 14.6044 16.4545 14.8867 16.8014 14.8867V14.8867ZM16.8168 12.7383H18.3207V14.2422H16.8168V12.7383ZM12.4222 10.8047H13.9568C14.3037 10.8047 14.586 10.5224 14.586 10.1755V8.64089C14.586 8.29396 14.3037 8.0117 13.9568 8.0117H12.4222C12.0753 8.0117 11.793 8.29396 11.793 8.64089V10.1755C11.793 10.5224 12.0753 10.8047 12.4222 10.8047ZM12.4376 8.65623H13.9415V10.1601H12.4376V8.65623ZM5.1984 15.9844H3.66382C3.31689 15.9844 3.03463 16.2666 3.03463 16.6136V18.1482C3.03463 18.4951 3.31689 18.7773 3.66382 18.7773H5.1984C5.54533 18.7773 5.82759 18.4951 5.82759 18.1482V16.6136C5.82759 16.2666 5.54533 15.9844 5.1984 15.9844ZM5.18306 18.1328H3.67916V16.6289H5.18306V18.1328ZM5.1984 8.0117H3.66382C3.31689 8.0117 3.03463 8.29396 3.03463 8.64089V10.1755C3.03463 10.5224 3.31689 10.8047 3.66382 10.8047H5.1984C5.54533 10.8047 5.82759 10.5224 5.82759 10.1755V8.64089C5.82759 8.29391 5.54533 8.0117 5.1984 8.0117ZM5.18306 10.1601H3.67916V8.65623H5.18306V10.1601ZM12.4222 14.791H13.9568C14.3037 14.791 14.586 14.5087 14.586 14.1618V12.6272C14.586 12.2803 14.3037 11.998 13.9568 11.998H12.4222C12.0753 11.998 11.793 12.2803 11.793 12.6272V14.1618C11.793 14.5087 12.0753 14.791 12.4222 14.791ZM12.4376 12.6426H13.9415V14.1465H12.4376V12.6426ZM19.2853 1.47271H17.9074V0.979988C17.9074 0.439613 17.4678 0 16.9275 0H16.7795C16.2391 0 15.7995 0.439613 15.7995 0.979988V1.47271H6.2003V0.979988C6.2003 0.439613 5.76069 0 5.22032 0H5.07233C4.53196 0 4.09234 0.439613 4.09234 0.979988V1.47271H2.71455C1.82488 1.47271 1.10107 2.19652 1.10107 3.08619V20.3887C1.10107 21.2772 1.82389 22 2.7124 22H19.2875C20.176 22 20.8988 21.2772 20.8988 20.3887V3.08619C20.8988 2.19652 20.175 1.47271 19.2853 1.47271V1.47271ZM16.4441 0.979988C16.4441 0.795008 16.5945 0.644531 16.7795 0.644531H16.9275C17.1125 0.644531 17.263 0.795008 17.263 0.979988V1.47271H16.4441V0.979988ZM4.73692 0.979988C4.73692 0.795008 4.88739 0.644531 5.07238 0.644531H5.22036C5.40534 0.644531 5.55582 0.795008 5.55582 0.979988V1.47271H4.73696V0.979988H4.73692ZM20.2543 20.3887C20.2543 20.9218 19.8206 21.3555 19.2875 21.3555H2.71236C2.17925 21.3555 1.74556 20.9218 1.74556 20.3887V20.3867C2.01558 20.5901 2.35121 20.7109 2.71455 20.7109H15.7806C16.2116 20.7109 16.6168 20.5431 16.9215 20.2383L20.2543 16.9056V20.3887ZM16.5927 19.6557C16.6179 19.5514 16.6317 19.4426 16.6317 19.3307V17.1795C16.6317 16.7739 16.9617 16.4438 17.3674 16.4438H19.5186C19.6305 16.4438 19.7392 16.4301 19.8435 16.4048L16.5927 19.6557ZM20.2543 6.0781H6.52257C6.34459 6.0781 6.2003 6.22239 6.2003 6.40037C6.2003 6.57834 6.34459 6.72263 6.52257 6.72263H20.2543V15.0636C20.2543 15.4693 19.9242 15.7994 19.5186 15.7994H17.3674C16.6063 15.7994 15.9872 16.4185 15.9872 17.1796V19.3307C15.9872 19.7364 15.6571 20.0664 15.2515 20.0664H2.71455C2.18028 20.0664 1.74561 19.6318 1.74561 19.0975V6.72263H5.23351C5.41148 6.72263 5.55577 6.57834 5.55577 6.40037C5.55577 6.22239 5.41148 6.0781 5.23351 6.0781H1.74556V3.08619C1.74556 2.55191 2.18023 2.11724 2.71451 2.11724H4.09234V3.06479C4.09234 3.60516 4.53196 4.04478 5.07233 4.04478C5.25031 4.04478 5.3946 3.90049 5.3946 3.72251C5.3946 3.54454 5.25031 3.40025 5.07233 3.40025C4.88735 3.40025 4.73687 3.24977 4.73687 3.06479V2.11724H15.7995V3.06479C15.7995 3.60516 16.2391 4.04478 16.7795 4.04478C16.9575 4.04478 17.1018 3.90049 17.1018 3.72251C17.1018 3.54454 16.9575 3.40025 16.7795 3.40025C16.5945 3.40025 16.4441 3.24977 16.4441 3.06479V2.11724H19.2853C19.8196 2.11724 20.2543 2.55191 20.2543 3.08619V6.0781ZM5.1984 11.998H3.66382C3.31689 11.998 3.03463 12.2803 3.03463 12.6272V14.1618C3.03463 14.5087 3.31689 14.791 3.66382 14.791H5.1984C5.54533 14.791 5.82759 14.5087 5.82759 14.1618V12.6272C5.82759 12.2803 5.54533 11.998 5.1984 11.998ZM5.18306 14.1465H3.67916V12.6426H5.18306V14.1465ZM8.04302 10.8047H9.57761C9.92454 10.8047 10.2068 10.5224 10.2068 10.1755V8.64089C10.2068 8.29396 9.92454 8.0117 9.57761 8.0117H8.04302C7.69609 8.0117 7.41383 8.29396 7.41383 8.64089V10.1755C7.41383 10.5224 7.69609 10.8047 8.04302 10.8047ZM8.05836 8.65623H9.56227V10.1601H8.05836V8.65623ZM12.4372 18.1328C12.4292 17.9619 12.2881 17.8259 12.1153 17.8259C11.9373 17.8259 11.793 17.9702 11.793 18.1482C11.793 18.4951 12.0752 18.7773 12.4222 18.7773H13.9568C14.3037 18.7773 14.586 18.4951 14.586 18.1482V16.6136C14.586 16.2666 14.3037 15.9844 13.9568 15.9844H12.4222C12.0752 15.9844 11.793 16.2666 11.793 16.6136V17.0561C11.793 17.2341 11.9373 17.3784 12.1153 17.3784C12.2932 17.3784 12.4375 17.2341 12.4375 17.0561V16.6289H13.9414V18.1328H12.4372ZM8.04302 14.791H9.57761C9.92454 14.791 10.2068 14.5087 10.2068 14.1618V12.6272C10.2068 12.2803 9.92454 11.998 9.57761 11.998H8.04302C7.69609 11.998 7.41383 12.2803 7.41383 12.6272V14.1618C7.41383 14.5087 7.69609 14.791 8.04302 14.791ZM8.05836 12.6426H9.56227V14.1465H8.05836V12.6426ZM8.04302 18.7773H9.57761C9.92454 18.7773 10.2068 18.4951 10.2068 18.1482V16.6136C10.2068 16.2666 9.92454 15.9844 9.57761 15.9844H8.04302C7.69609 15.9844 7.41383 16.2666 7.41383 16.6136V18.1482C7.41383 18.4951 7.69609 18.7773 8.04302 18.7773ZM8.05836 16.6289H9.56227V18.1328H8.05836V16.6289Z" fill="#A0A3B1"/>
</g>
<defs>
<clipPath id="clip0">
<rect width="22" height="22" fill="white"/>
</clipPath>
</defs>
</svg>
