<svg width="18" height="18" viewBox="0 0 18 18" fill="none" xmlns="http://www.w3.org/2000/svg">
<g clip-path="url(#clip0)">
<path d="M4.50005 0C4.14499 0 3.85718 0.287816 3.85718 0.642869V1.92857H5.14288V0.642869C5.14288 0.287816 4.85506 0 4.50005 0Z" fill="#656565"/>
<path d="M13.5 0C13.145 0 12.8572 0.287816 12.8572 0.642869V1.92857H14.1429V0.642869C14.1429 0.287816 13.8551 0 13.5 0Z" fill="#656565"/>
<path d="M16.0714 1.92857H14.1429V4.50001C14.1429 4.85507 13.855 5.14288 13.5 5.14288C13.1449 5.14288 12.8571 4.85507 12.8571 4.50001V1.92857H5.14284V4.50001C5.14284 4.85507 4.85502 5.14288 4.49997 5.14288C4.14492 5.14288 3.8571 4.85507 3.8571 4.50001V1.92857H1.92857C0.863449 1.92857 0 2.79202 0 3.85714V16.0714C0 17.1366 0.863449 18 1.92857 18H16.0714C17.1365 18 18 17.1366 18 16.0714V3.85714C18 2.79202 17.1365 1.92857 16.0714 1.92857ZM16.7143 16.0714C16.7143 16.4265 16.4264 16.7143 16.0714 16.7143H1.92857C1.57352 16.7143 1.2857 16.4265 1.2857 16.0714V7.71429H16.7143V16.0714Z" fill="#656565"/>
<path d="M5.14281 8.99998H3.8571C3.50205 8.99998 3.21423 9.2878 3.21423 9.64285C3.21423 9.99791 3.50205 10.2857 3.8571 10.2857H5.14281C5.49786 10.2857 5.78568 9.99791 5.78568 9.64285C5.78568 9.2878 5.49786 8.99998 5.14281 8.99998Z" fill="#656565"/>
<path d="M9.6428 8.99998H8.3571C8.00205 8.99998 7.71423 9.2878 7.71423 9.64285C7.71423 9.99791 8.00205 10.2857 8.3571 10.2857H9.6428C9.99785 10.2857 10.2857 9.99791 10.2857 9.64285C10.2857 9.2878 9.99785 8.99998 9.6428 8.99998Z" fill="#656565"/>
<path d="M14.1428 8.99998H12.8571C12.5021 8.99998 12.2142 9.2878 12.2142 9.64285C12.2142 9.99791 12.5021 10.2857 12.8571 10.2857H14.1428C14.4979 10.2857 14.7857 9.99791 14.7857 9.64285C14.7857 9.2878 14.4978 8.99998 14.1428 8.99998Z" fill="#656565"/>
<path d="M5.14281 11.5714H3.8571C3.50205 11.5714 3.21423 11.8592 3.21423 12.2143C3.21423 12.5693 3.50205 12.8572 3.8571 12.8572H5.14281C5.49786 12.8572 5.78568 12.5693 5.78568 12.2143C5.78568 11.8592 5.49786 11.5714 5.14281 11.5714Z" fill="#656565"/>
<path d="M9.6428 11.5714H8.3571C8.00205 11.5714 7.71423 11.8592 7.71423 12.2143C7.71423 12.5693 8.00205 12.8572 8.3571 12.8572H9.6428C9.99785 12.8572 10.2857 12.5693 10.2857 12.2143C10.2857 11.8592 9.99785 11.5714 9.6428 11.5714Z" fill="#656565"/>
<path d="M14.1428 11.5714H12.8571C12.5021 11.5714 12.2142 11.8592 12.2142 12.2143C12.2142 12.5693 12.5021 12.8572 12.8571 12.8572H14.1428C14.4979 12.8572 14.7857 12.5693 14.7857 12.2143C14.7856 11.8592 14.4978 11.5714 14.1428 11.5714Z" fill="#656565"/>
<path d="M5.14281 14.1429H3.8571C3.50205 14.1429 3.21423 14.4307 3.21423 14.7857C3.21423 15.1408 3.50205 15.4286 3.8571 15.4286H5.14281C5.49786 15.4286 5.78568 15.1407 5.78568 14.7857C5.78568 14.4306 5.49786 14.1429 5.14281 14.1429Z" fill="#656565"/>
<path d="M9.6428 14.1429H8.3571C8.00205 14.1429 7.71423 14.4307 7.71423 14.7857C7.71423 15.1408 8.00205 15.4286 8.3571 15.4286H9.6428C9.99785 15.4286 10.2857 15.1408 10.2857 14.7857C10.2857 14.4307 9.99785 14.1429 9.6428 14.1429Z" fill="#656565"/>
<path d="M14.1428 14.1429H12.8571C12.5021 14.1429 12.2142 14.4307 12.2142 14.7857C12.2142 15.1408 12.5021 15.4286 12.8571 15.4286H14.1428C14.4979 15.4286 14.7857 15.1408 14.7857 14.7857C14.7857 14.4307 14.4978 14.1429 14.1428 14.1429Z" fill="#656565"/>
</g>
<defs>
<clipPath id="clip0">
<rect width="18" height="18" fill="white"/>
</clipPath>
</defs>
</svg>
