<svg width="28" height="28" viewBox="0 0 28 28" fill="none" xmlns="http://www.w3.org/2000/svg">
<g clip-path="url(#clip0)">
<path d="M25.8991 8.76144H25.1362V17.1469C25.1362 18.4525 24.376 19.633 22.8521 19.633H7.92139V20.0317C7.92139 21.186 9.23424 22.3512 10.5824 22.3512H21.9977L26.3648 24.9189L25.7315 22.3512H25.8991C27.2464 22.3512 27.8543 21.1887 27.8543 20.0317V10.752C27.8543 9.59771 27.2464 8.76144 25.8991 8.76144Z" fill="#204977"/>
<path d="M20.6234 2.93558H3.28169C1.75591 2.93558 0 4.29102 0 5.59753V16.1076C0 17.3109 1.48772 18.1797 2.91474 18.3138L1.98605 21.8393L7.93694 18.3383H20.6234C22.1491 18.3383 23.5571 17.4132 23.5571 16.1076V7.60442V5.59753C23.5571 4.29102 22.1482 2.93558 20.6234 2.93558ZM5.92733 11.8075C5.06206 11.8075 4.36079 11.1063 4.36079 10.241C4.36079 9.37573 5.06206 8.67445 5.92733 8.67445C6.7917 8.67445 7.49388 9.37573 7.49388 10.241C7.49388 11.1063 6.7917 11.8075 5.92733 11.8075ZM11.7786 11.8075C10.9133 11.8075 10.212 11.1063 10.212 10.241C10.212 9.37573 10.9133 8.67445 11.7786 8.67445C12.6438 8.67445 13.3451 9.37573 13.3451 10.241C13.3451 11.1063 12.6438 11.8075 11.7786 11.8075ZM17.6307 11.8075C16.7654 11.8075 16.0632 11.1063 16.0632 10.241C16.0632 9.37573 16.7654 8.67445 17.6307 8.67445C18.4942 8.67445 19.1972 9.37573 19.1972 10.241C19.1972 11.1063 18.4942 11.8075 17.6307 11.8075Z" fill="#204977"/>
</g>
<defs>
<clipPath id="clip0">
<rect width="27.8545" height="27.8554" fill="white"/>
</clipPath>
</defs>
</svg>
