<svg width="21" height="21" viewBox="0 0 21 21" fill="none" xmlns="http://www.w3.org/2000/svg">
<g clip-path="url(#clip0)">
<path d="M20.4057 4.9596C20.4057 4.93683 20.4214 4.91467 20.4203 4.89216L14.3391 10.7517L20.413 16.4241C20.4166 16.3836 20.4057 16.3427 20.4057 16.3013V4.9596V4.9596Z" fill="#DD1D22"/>
<path d="M13.4105 11.6534L10.928 14.0419C10.8024 14.1628 10.6402 14.2234 10.4778 14.2234C10.3189 14.2234 10.1599 14.1654 10.0351 14.0491L7.55938 11.7421L1.4458 17.6349C1.59445 17.6883 1.75402 17.7298 1.92111 17.7298H19.0346C19.2827 17.7298 19.5155 17.6542 19.7178 17.5415L13.4105 11.6534Z" fill="#DD1D22"/>
<path d="M10.4709 12.6799L19.7516 3.73981C19.5415 3.61488 19.2969 3.53107 19.0348 3.53107H1.92125C1.57987 3.53107 1.26707 3.66362 1.02344 3.86578L10.4709 12.6799Z" fill="#DD1D22"/>
<path d="M0.492676 5.17735V16.3012C0.492676 16.4289 0.522026 16.552 0.553886 16.6696L6.59163 10.8554L0.492676 5.17735Z" fill="#DD1D22"/>
</g>
<defs>
<clipPath id="clip0">
<rect width="19.9275" height="19.9275" fill="white" transform="translate(0.492676 0.666664)"/>
</clipPath>
</defs>
</svg>
