<svg width="23" height="23" viewBox="0 0 23 23" fill="none" xmlns="http://www.w3.org/2000/svg">
<mask id="mask0" mask-type="alpha" maskUnits="userSpaceOnUse" x="0" y="0" width="23" height="23">
<rect x="0.963867" y="0.405792" width="21.7391" height="21.7391" fill="#C4C4C4"/>
</mask>
<g mask="url(#mask0)">
<path d="M18.9388 9.85618H18.3551V9.8261H11.8333V12.7247H15.9286C15.3312 14.412 13.7257 15.6232 11.8333 15.6232C9.43222 15.6232 7.48548 13.6765 7.48548 11.2754C7.48548 8.87429 9.43222 6.92754 11.8333 6.92754C12.9417 6.92754 13.95 7.34566 14.7178 8.02863L16.7674 5.97898C15.4732 4.77282 13.742 4.02898 11.8333 4.02898C7.83149 4.02898 4.58691 7.27356 4.58691 11.2754C4.58691 15.2772 7.83149 18.5218 11.8333 18.5218C15.8352 18.5218 19.0797 15.2772 19.0797 11.2754C19.0797 10.7895 19.0297 10.3152 18.9388 9.85618Z" fill="#FFC107"/>
<path d="M5.42188 7.90253L7.80268 9.64855C8.44689 8.05362 10.007 6.92752 11.8328 6.92752C12.9411 6.92752 13.9494 7.34564 14.7172 8.02862L16.7669 5.97897C15.4726 4.7728 13.7415 4.02896 11.8328 4.02896C9.04943 4.02896 6.63565 5.60034 5.42188 7.90253Z" fill="#FF3D00"/>
<path d="M11.8334 18.522C13.7052 18.522 15.4059 17.8057 16.6918 16.6409L14.449 14.743C13.7215 15.2941 12.8171 15.6235 11.8334 15.6235C9.94865 15.6235 8.34828 14.4217 7.74538 12.7445L5.38232 14.5651C6.5816 16.9119 9.01712 18.522 11.8334 18.522Z" fill="#4CAF50"/>
<path d="M18.9387 9.85617H18.355V9.8261H11.8333V12.7247H15.9286C15.6416 13.5352 15.1202 14.2341 14.4478 14.7431C14.4481 14.7428 14.4485 14.7428 14.4488 14.7424L16.6916 16.6403C16.5329 16.7845 19.0797 14.8986 19.0797 11.2754C19.0797 10.7895 19.0297 10.3152 18.9387 9.85617Z" fill="#1976D2"/>
</g>
</svg>
