<svg width="22" height="21" viewBox="0 0 22 21" fill="none" xmlns="http://www.w3.org/2000/svg">
<path d="M18.618 20.5H12.6653V15.5045V15.0045H12.1653H9.44734H8.94734V15.5045V20.5H3.38289C3.23462 20.5 3.10633 20.3782 3.10633 20.2149V13.0095V12.5095H2.60633H1.55312C0.977744 12.5095 0.5 12.0344 0.5 11.4393C0.5 11.1539 0.613062 10.8804 0.811704 10.6796L10.8074 0.581732L10.8078 0.581254C10.8336 0.555138 10.8639 0.534712 10.8969 0.520877C10.9299 0.507047 10.9651 0.5 11.0005 0.5C11.0358 0.5 11.071 0.507046 11.104 0.520877C11.137 0.534712 11.1673 0.555138 11.1931 0.581255L11.1936 0.581732L21.1892 10.6796C21.1892 10.6796 21.1893 10.6797 21.1893 10.6797C21.6033 11.0983 21.6033 11.7788 21.1909 12.1973L21.1902 12.1981C20.9936 12.3985 20.7269 12.5095 20.4478 12.5095H19.3946H18.8946V13.0095V20.2149C18.8946 20.3782 18.7663 20.5 18.618 20.5Z" stroke="#DD1D22"/>
</svg>
