<svg width="38" height="38" viewBox="0 0 38 38" fill="none" xmlns="http://www.w3.org/2000/svg">
<g clip-path="url(#clip0)">
<path d="M1.30453 14.5761C-0.166655 16.0472 -0.4255 18.3731 0.689008 20.1064C2.24616 22.5269 4.83304 26.2166 8.30713 29.693C11.7835 33.1672 15.4732 35.754 17.8937 37.3111C18.594 37.7613 19.4117 37.9994 20.2577 37.9994C21.4418 37.9983 22.5966 37.5232 23.4241 36.6957L26.4905 33.6293L19.4041 28.1185L17.0293 30.4933L16.2964 30.0888C12.7929 28.1544 9.84587 25.2073 7.91141 21.7038L7.50692 20.9709L9.88173 18.5961L4.37095 11.5097L1.30453 14.5761Z" fill="#B54B4B"/>
<path d="M25.6776 0.000610352C18.924 0.000610352 13.4294 5.56936 13.4294 12.323C13.4294 14.7467 14.1558 17.0878 15.5368 19.1299L13.9145 24.0862L18.8707 22.4639C20.9128 23.8449 23.254 24.5712 25.6777 24.5712C32.4313 24.5712 38.0001 19.0767 38.0001 12.3231C38.0001 5.56944 32.4313 0.000610352 25.6776 0.000610352ZM25.6776 20.1173C25.6575 20.1173 25.7806 20.1173 25.2916 20.1173C21.9741 20.1173 19.2752 17.4184 19.2752 14.1008C19.2752 12.261 19.9689 10.9073 21.3357 10.0765C21.9283 9.71651 22.3383 9.14129 22.4916 8.45518C22.6482 7.75057 22.5079 7.00136 22.1066 6.39897L20.9529 4.6679H23.4191C28.1949 4.6679 32.0801 8.55309 32.0801 13.3288C32.0801 17.2992 28.632 20.1173 25.6776 20.1173Z" fill="#B54B4B"/>
<path d="M25.6777 14.5489L24.7121 16.2212C24.6153 16.3887 24.5642 16.5812 24.5642 16.7769C24.5642 17.3455 24.9979 17.7976 25.549 17.8644C25.723 17.8544 25.8958 17.8413 26.0643 17.8122C26.4869 17.6541 26.7911 17.2542 26.7911 16.7769C26.7911 16.5811 26.7401 16.3887 26.6422 16.219L25.6777 14.5489Z" fill="#B54B4B"/>
<path d="M24.7045 7.02429C24.8165 7.65385 24.8056 8.30634 24.6653 8.93805C24.3793 10.2233 23.6073 11.3031 22.4917 11.9805C22.0318 12.26 21.5022 12.7536 21.5022 14.1008C21.5022 15.0113 21.8379 15.8364 22.3748 16.4905C22.4168 16.007 22.539 15.5325 22.782 15.1099L25.6777 10.0972L28.5723 15.1078C28.743 15.4046 28.8508 15.7272 28.9238 16.0582C29.4991 15.2947 29.8532 14.3562 29.8532 13.3288C29.8531 10.2211 27.6382 7.62126 24.7045 7.02429Z" fill="#B54B4B"/>
</g>
<defs>
<clipPath id="clip0">
<rect width="38" height="38" fill="white"/>
</clipPath>
</defs>
</svg>
