<svg width="38" height="38" viewBox="0 0 38 38" fill="none" xmlns="http://www.w3.org/2000/svg">
<path d="M27.8864 24.5281C29.7564 21.9745 30.8749 18.8379 30.8749 15.4376C30.8749 6.92568 23.9493 0.000137329 15.4374 0.000137329C6.92547 0.000137329 0 6.92568 0 15.4376C0 23.9495 6.92554 30.8751 15.4375 30.8751C18.8378 30.8751 21.9746 29.7564 24.5282 27.8865L34.6416 37.9999L38 34.6415C38 34.6415 27.8864 24.5281 27.8864 24.5281V24.5281ZM15.4375 26.1251C9.54404 26.1251 4.75002 21.331 4.75002 15.4376C4.75002 9.54418 9.54404 4.75016 15.4375 4.75016C21.3309 4.75016 26.1249 9.54418 26.1249 15.4376C26.1249 21.331 21.3308 26.1251 15.4375 26.1251Z" fill="#FF8434"/>
</svg>
