<?xml version="1.0" encoding="iso-8859-1"?>
<!-- Generator: Adobe Illustrator 16.0.0, SVG Export Plug-In . SVG Version: 6.00 Build 0)  -->
<!DOCTYPE svg PUBLIC "-//W3C//DTD SVG 1.1//EN" "http://www.w3.org/Graphics/SVG/1.1/DTD/svg11.dtd">
<svg version="1.1" id="Capa_1" xmlns="http://www.w3.org/2000/svg" xmlns:xlink="http://www.w3.org/1999/xlink" x="0px" y="0px"
	 width="33.959px" height="33.959px" viewBox="0 0 33.959 33.959" style="enable-background:new 0 0 33.959 33.959;"
	 xml:space="preserve">
<g>
	<g>
		<path d="M18.872,1.233c-13.668,0-14.522,14.524-14.522,14.524L0,18.226c0.342,2.221,7.962,0.266,7.962,0.266
			c3.474-0.58,6.592-0.8,9.375-0.814c0.917-0.006,1.791,0.014,2.633,0.05c3.1,0.13,5.698,0.489,7.799,0.832
			c1.135,0.185,2.125,0.36,2.972,0.489c0.813,0.127,1.508,0.211,2.057,0.211C36.129,19.259,32.541,1.233,18.872,1.233z M16.95,16.44
			c-0.543,0-0.982-0.44-0.982-0.982s0.44-0.982,0.982-0.982s0.981,0.44,0.981,0.982S17.492,16.44,16.95,16.44z M19.683,16.44
			c-0.543,0-0.981-0.44-0.981-0.982s0.44-0.982,0.981-0.982c0.543,0,0.982,0.44,0.982,0.982S20.226,16.44,19.683,16.44z
			 M27.884,17.146c-0.543,0-0.982-0.44-0.982-0.982s0.44-0.982,0.982-0.982s0.982,0.44,0.982,0.982S28.427,17.146,27.884,17.146z
			 M30.619,17.7c-0.543,0-0.982-0.439-0.982-0.982c0-0.542,0.44-0.982,0.982-0.982s0.982,0.44,0.982,0.982
			C31.601,17.261,31.162,17.7,30.619,17.7z"/>
		<path d="M29.541,19.671c-0.764,2.002-3.52,7.643-10.551,8.344c1.584-3.823,1.925-8.221,1.99-9.42
			c-0.332-0.02-0.668-0.037-1.01-0.051c-0.572-0.024-1.164-0.037-1.767-0.043c-0.138,2.651-1.043,9.125-3.912,11.785l-0.002-0.002
			l-0.318,0.326c-0.223,0.229-0.218,0.593,0.01,0.816l1.161,1.135c0.228,0.223,0.593,0.219,0.816-0.01l0.23-0.234
			c0.462-0.43,0.879-0.92,1.256-1.451c0.027,0,0.053,0.001,0.078,0.001c10.513,0,14.184-8.979,14.822-10.806
			c-0.463-0.03-1-0.102-1.604-0.195C30.37,19.809,29.966,19.741,29.541,19.671z"/>
	</g>
</g>
<g>
</g>
<g>
</g>
<g>
</g>
<g>
</g>
<g>
</g>
<g>
</g>
<g>
</g>
<g>
</g>
<g>
</g>
<g>
</g>
<g>
</g>
<g>
</g>
<g>
</g>
<g>
</g>
<g>
</g>
</svg>
