<svg width="20" height="20" viewBox="0 0 20 20" fill="none" xmlns="http://www.w3.org/2000/svg">
<g clip-path="url(#clip0)">
<path d="M15.5684 7.47282H14.9457V4.98188C14.9457 2.23437 12.7113 -7.62939e-06 9.96379 -7.62939e-06C7.21628 -7.62939e-06 4.98191 2.23437 4.98191 4.98188V7.47282H4.35917C3.32958 7.47282 2.49097 8.3106 2.49097 9.34102V18.0593C2.49097 19.0897 3.32958 19.9275 4.35917 19.9275H15.5684C16.598 19.9275 17.4366 19.0897 17.4366 18.0593V9.34102C17.4366 8.3106 16.598 7.47282 15.5684 7.47282ZM6.64254 4.98188C6.64254 3.1502 8.13212 1.66062 9.96379 1.66062C11.7955 1.66062 13.285 3.1502 13.285 4.98188V7.47282H6.64254V4.98188ZM10.7941 13.8845V15.776C10.7941 16.2343 10.423 16.6063 9.96379 16.6063C9.50463 16.6063 9.13348 16.2343 9.13348 15.776V13.8845C8.63944 13.5964 8.30316 13.0666 8.30316 12.4547C8.30316 11.5389 9.04796 10.7941 9.96379 10.7941C10.8796 10.7941 11.6244 11.5389 11.6244 12.4547C11.6244 13.0666 11.2881 13.5964 10.7941 13.8845Z" fill="#DD1D22"/>
</g>
<defs>
<clipPath id="clip0">
<rect width="19.9275" height="19.9275" fill="white"/>
</clipPath>
</defs>
</svg>
