<svg width="127" height="104" viewBox="0 0 127 104" fill="none" xmlns="http://www.w3.org/2000/svg">
<path d="M47.2562 2.96247C60.2018 -0.702587 74.2525 -1.3202 87.0518 3.125C111.244 11.5197 128.172 33.5913 126.726 55.5004C125.97 66.8694 120.948 79.6281 114.211 89.0142C96.056 114.312 46.086 101.708 21.1538 87.1045C-7.11833 70.5508 -5.02169 37.8659 15.4653 19.89C23.7218 12.6493 34.9852 6.4325 47.2562 2.96247Z" fill="white"/>
<path d="M42.7333 68.8H66.9999V70.6667H42.7333V68.8Z" fill="black"/>
<path d="M54.8667 77.2C53.3204 77.2 52.0667 75.9463 52.0667 74.4C52.0667 72.8537 53.3204 71.6 54.8667 71.6C56.4129 71.6 57.6667 72.8537 57.6667 74.4C57.6667 75.9463 56.4129 77.2 54.8667 77.2ZM54.8667 73.4667C54.3512 73.4667 53.9333 73.8846 53.9333 74.4C53.9333 74.9154 54.3512 75.3333 54.8667 75.3333C55.3821 75.3333 55.8 74.9154 55.8 74.4C55.8 73.8846 55.3821 73.4667 54.8667 73.4667Z" fill="black"/>
<path d="M68.8667 75.3333C68.8667 76.8796 67.613 78.1333 66.0667 78.1333H43.6667C42.1204 78.1333 40.8667 76.8796 40.8667 75.3333V28.6667C40.8667 27.1204 42.1204 25.8667 43.6667 25.8667H45.5333V26.8C45.5333 28.3463 46.787 29.6 48.3333 29.6H61.4C62.9463 29.6 64.2 28.3463 64.2 26.8V25.8667H66.0667C67.613 25.8667 68.8667 27.1204 68.8667 28.6667V35.2H70.7333V28.6667C70.7301 26.0904 68.6429 24.0032 66.0667 24H43.6667C41.0904 24.0032 39.0032 26.0904 39 28.6667V75.3333C39.0032 77.9096 41.0904 79.9968 43.6667 80H66.0667C68.6429 79.9968 70.7301 77.9096 70.7333 75.3333V53.8667H68.8667V75.3333ZM47.4 25.8667H62.3333V26.8C62.3333 27.3154 61.9154 27.7333 61.4 27.7333H48.3333C47.8179 27.7333 47.4 27.3154 47.4 26.8V25.8667Z" fill="black"/>
<path d="M52.0667 37.0667V52H95V37.0667H52.0667ZM93.1333 50.1334H53.9333V38.9333H93.1333V50.1334Z" fill="black"/>
<path d="M56.7671 47.2084L58.6 46.1498V48.2667H60.4667V46.1498L62.2996 47.2084L63.233 45.5915L61.4 44.5333L63.233 43.4751L62.2996 41.8582L60.4667 42.9168V40.8H58.6V42.9168L56.7671 41.8582L55.8337 43.4751L57.6667 44.5333L55.8337 45.5915L56.7671 47.2084Z" fill="black"/>
<path d="M66.1003 47.2084L67.9333 46.1498V48.2667H69.7999V46.1498L71.6329 47.2084L72.5662 45.5915L70.7333 44.5333L72.5662 43.4751L71.6329 41.8582L69.7999 42.9168V40.8H67.9333V42.9168L66.1003 41.8582L65.167 43.4751L66.9999 44.5333L65.167 45.5915L66.1003 47.2084Z" fill="black"/>
<path d="M75.4337 47.2084L77.2666 46.1498V48.2667H79.1333V46.1498L80.9662 47.2084L81.8996 45.5915L80.0666 44.5333L81.8996 43.4751L80.9662 41.8582L79.1333 42.9168V40.8H77.2666V42.9168L75.4337 41.8582L74.5004 43.4751L76.3333 44.5333L74.5004 45.5915L75.4337 47.2084Z" fill="black"/>
<path d="M84.7671 47.2084L86.6 46.1498V48.2667H88.4667V46.1498L90.2996 47.2084L91.233 45.5915L89.4 44.5333L91.233 43.4751L90.2996 41.8582L88.4667 42.9168V40.8H86.6V42.9168L84.7671 41.8582L83.8337 43.4751L85.6667 44.5333L83.8337 45.5915L84.7671 47.2084Z" fill="black"/>
</svg>
