<svg width="22" height="22" viewBox="0 0 22 22" fill="none" xmlns="http://www.w3.org/2000/svg">
<g clip-path="url(#clip0)">
<path d="M15.8309 4.59157L13.8849 1.25766C13.7923 1.09907 13.6401 0.983575 13.4623 0.937741C13.2854 0.893741 13.0956 0.919408 12.9379 1.01382L6.98877 4.58332L15.8309 4.59157Z" fill="white"/>
<path d="M2.75 5.50001C2.24583 5.50001 1.83333 5.08751 1.83333 4.58334C1.83333 4.07918 2.24583 3.66668 2.75 3.66668H5.83917L8.90083 1.83334H2.75C1.39333 1.83334 0.265833 2.82334 0.0458333 4.12501C0.0275 4.19834 0 4.27168 0 4.35418V18.3333C0 19.8458 1.2375 21.0833 2.75 21.0833H18.3333C19.3417 21.0833 20.1667 20.2583 20.1667 19.25V17.4167H17.875C15.6017 17.4167 13.75 15.565 13.75 13.2917C13.75 11.0183 15.6017 9.16668 17.875 9.16668H20.1667V7.33334C20.1667 6.32501 19.3417 5.50001 18.3333 5.50001H2.75ZM17.4167 3.66668C17.4167 2.74084 16.7292 1.97084 15.8308 1.85168L17.4167 4.58334V3.66668Z" fill="white"/>
<path d="M21.3125 10.5417H17.875C16.3588 10.5417 15.125 11.7755 15.125 13.2917C15.125 14.8078 16.3588 16.0417 17.875 16.0417H21.3125C21.692 16.0417 22 15.7337 22 15.3542V11.2292C22 10.8497 21.692 10.5417 21.3125 10.5417ZM17.875 14.2083C17.369 14.2083 16.9583 13.7977 16.9583 13.2917C16.9583 12.7857 17.369 12.375 17.875 12.375C18.381 12.375 18.7917 12.7857 18.7917 13.2917C18.7917 13.7977 18.381 14.2083 17.875 14.2083Z" fill="white"/>
</g>
<defs>
<clipPath id="clip0">
<rect width="22" height="22" fill="white"/>
</clipPath>
</defs>
</svg>
