<svg width="22" height="22" viewBox="0 0 22 22" fill="none" xmlns="http://www.w3.org/2000/svg">
<path d="M17.3181 0.615909V0.613636C16.9276 0.22108 16.3968 0.000227273 15.8431 0H6.15448C5.00374 0.00375 4.07187 0.935625 4.06812 2.08636V19.9114C4.06834 20.4651 4.28919 20.9959 4.68175 21.3864C5.07169 21.7784 5.60158 21.9991 6.15448 22H15.8454C16.3983 21.9991 16.9282 21.7784 17.3181 21.3864C17.7101 20.9964 17.9309 20.4665 17.9317 19.9136V2.08864C17.9309 1.53574 17.7101 1.00585 17.3181 0.615909ZM10.9999 20.5841C10.6886 20.5841 10.4363 20.3318 10.4363 20.0205C10.4363 19.7091 10.6886 19.4568 10.9999 19.4568C11.3112 19.4568 11.5636 19.7091 11.5636 20.0205C11.5636 20.3318 11.3112 20.5841 10.9999 20.5841ZM16.2749 17.0455C16.2749 17.7986 15.6644 18.4091 14.9113 18.4091H7.0863C6.33317 18.4091 5.72266 17.7986 5.72266 17.0455V3.76136C5.72266 3.00824 6.33317 2.39773 7.0863 2.39773H14.9136C15.6667 2.39773 16.2772 3.00824 16.2772 3.76136L16.2749 17.0455Z" fill="#DD1D22"/>
</svg>
