<svg width="40" height="38" viewBox="0 0 40 38" fill="none" xmlns="http://www.w3.org/2000/svg">
<path d="M22.5303 3.60482C22.016 3.40872 21.4665 3.46452 21.0185 3.70991L20.7473 2.18355C20.574 1.20801 19.6376 0.556429 18.661 0.727128L18.6609 0.72714L7.90527 2.60975C7.90526 2.60975 7.90526 2.60976 7.90526 2.60976C7.43926 2.69131 7.1276 3.13524 7.20915 3.60121L7.20915 3.60123C7.29073 4.0673 7.73464 4.37851 8.20038 4.29737L8.20062 4.29733L18.9559 2.41477C18.9559 2.41477 18.9559 2.41476 18.956 2.41476C18.9771 2.4111 19.002 2.416 19.0243 2.43137C19.0466 2.44675 19.0576 2.4664 19.0605 2.48313L19.0605 2.48315L19.6829 5.98679L18.5516 8.91235L18.0386 5.98878C17.9163 5.2117 17.1582 4.54938 16.323 4.70882L5.75073 6.5867L5.75068 6.58671C4.93631 6.7315 4.43548 7.54929 4.57983 8.37157C4.57983 8.37157 4.57983 8.37158 4.57984 8.37159L7.91744 27.391C8.04047 28.1679 8.796 28.8298 9.63289 28.6708C9.63358 28.6707 9.63428 28.6706 9.63497 28.6704L11.0054 28.4271L10.8231 28.8984C10.8228 28.8991 10.8226 28.8997 10.8223 28.9004C10.6294 29.3826 10.6727 29.9337 10.9098 30.3854L7.06865 31.0577C7.06853 31.0577 7.06841 31.0577 7.06829 31.0577C7.04704 31.0613 7.02233 31.0564 7.00021 31.0411C6.97798 31.0258 6.96695 31.0061 6.96394 30.9892L2.4172 5.39286L2.41726 5.39285L2.41605 5.38678C2.4144 5.37846 2.41514 5.3582 2.43256 5.33381C2.45009 5.30926 2.47084 5.29993 2.4821 5.29822L2.48211 5.2983L2.48888 5.29712L5.52903 4.76495C5.52904 4.76494 5.52904 4.76494 5.52905 4.76494C5.99516 4.68338 6.3067 4.23942 6.22516 3.77348C6.14355 3.30712 5.69894 2.99628 5.23391 3.07733L5.23368 3.07737L2.19658 3.60902C1.23633 3.75806 0.542434 4.73927 0.730923 5.69538L5.27688 31.2872C5.27693 31.2875 5.27698 31.2878 5.27703 31.2881C5.44663 32.2713 6.40869 32.919 7.36469 32.7451C7.36503 32.745 7.36538 32.7449 7.36572 32.7449L13.1756 31.7279L27.4684 37.174C27.4687 37.1741 27.469 37.1742 27.4692 37.1744C28.3731 37.5257 29.4391 37.0756 29.7961 36.142C29.7961 36.1419 29.7961 36.1418 29.7962 36.1417L37.3973 16.4854C37.5679 16.0441 37.3485 15.5481 36.9073 15.3775L36.8064 15.6386L36.9073 15.3775C36.4661 15.2069 35.97 15.4262 35.7994 15.8675C35.7994 15.8675 35.7994 15.8675 35.7994 15.8675L28.1979 35.5249C28.1914 35.5417 28.1761 35.5595 28.1509 35.5706C28.1258 35.5817 28.1006 35.5816 28.0809 35.5741L28.0805 35.5739L12.4699 29.6256L12.4699 29.6255L12.4634 29.6232C12.4532 29.6196 12.4352 29.607 12.423 29.5801C12.4109 29.5535 12.4139 29.5337 12.4172 29.5257L12.4173 29.5257L12.4195 29.5198L13.1249 27.6956C13.1476 27.6497 13.1662 27.6018 13.1804 27.5522L16.4268 19.157C16.5975 18.7158 16.3781 18.2198 15.9369 18.0491L15.9368 18.0491C15.4956 17.8786 14.9997 18.098 14.829 18.5391L14.829 18.5391L11.7278 26.5586L9.57773 26.9405L6.29437 8.23019L16.3783 6.43911L17.3552 12.0064L15.8047 16.016C15.8047 16.016 15.8047 16.016 15.8047 16.016C15.6342 16.457 15.8531 16.9526 16.2937 17.1235C16.7258 17.2934 17.2317 17.0802 17.4028 16.6333C17.4028 16.6331 17.4029 16.633 17.4029 16.6328L21.2928 6.57358C21.3565 6.47544 21.4003 6.36405 21.4196 6.24577L21.8029 5.25467L21.8029 5.25464C21.8093 5.23792 21.8245 5.22017 21.8498 5.2091C21.875 5.19803 21.9003 5.1981 21.92 5.20564L21.9203 5.20573L37.5309 11.1541L37.5309 11.1541L37.5372 11.1564C37.5476 11.1601 37.5656 11.1727 37.5778 11.1995C37.5899 11.2262 37.5869 11.246 37.5836 11.254L37.5835 11.254L37.5813 11.2598L36.7752 13.3443C36.6045 13.7856 36.824 14.2816 37.2652 14.4522L37.2654 14.4523C37.7061 14.6222 38.2023 14.4037 38.373 13.9622L39.1791 11.8777L39.1791 11.8776C39.3519 11.4308 39.3391 10.9415 39.1438 10.5029L38.874 10.6231L39.1438 10.5029C38.9477 10.0627 38.5908 9.72456 38.1408 9.55308L22.5304 3.60485C22.5303 3.60484 22.5303 3.60483 22.5303 3.60482Z" fill="#204977" stroke="#204977" stroke-width="0.6"/>
<path d="M21.0248 14.1571L21.1859 14.0729C22.6535 13.3063 24.1177 13.7737 24.5247 13.9306L21.0248 14.1571ZM21.0248 14.1571V14.1623M21.0248 14.1571V14.1623M21.0248 14.1623C19.6094 14.9932 19.1978 16.5033 19.0296 17.1206L19.0259 17.1342L19.0259 17.1342C18.4595 19.2118 19.2736 21.2908 20.2426 22.8689C21.2167 24.4554 22.3848 25.5973 22.6296 25.8291L21.0248 14.1623ZM23.2366 26.0635L23.236 26.0635L23.2185 26.0637C22.9997 26.0637 22.7888 25.9798 22.6296 25.8291L23.2366 26.0635ZM23.2366 26.0635C23.8041 26.0515 25.5199 25.9697 27.3112 25.4322C29.0933 24.8975 31.0192 23.8903 31.9045 21.9788L31.6412 21.8569M23.2366 26.0635L31.6412 21.8569M31.6412 21.8569L31.9045 21.9787L31.9092 21.9685C32.153 21.4423 32.8385 19.9622 32.2437 18.3666C31.7271 16.9806 30.5582 16.3217 30.0886 16.1046L29.9627 16.3769L30.0886 16.1046C28.8023 15.5098 27.5688 15.7135 26.7675 15.9839M31.6412 21.8569L26.7675 15.9839M23.9084 15.5291L23.9083 15.5291C23.7268 15.4591 22.8161 15.1544 21.9791 15.5914L23.9084 15.5291ZM23.9084 15.5291C25.0771 15.9798 25.4307 17.1805 25.4712 17.3356M23.9084 15.5291L25.4712 17.3356M29.4955 17.3873C28.113 16.7482 26.7361 17.5157 26.5837 17.6053C26.2792 17.7953 25.8427 17.6141 25.7626 17.264L29.4955 17.3873ZM29.4955 17.3873C29.8135 17.5342 30.5885 17.9721 30.9196 18.8601L29.4955 17.3873ZM25.4712 17.3356C25.5997 17.8821 26.2609 18.1565 26.7385 17.8623C26.8073 17.8221 27.1572 17.6276 27.6455 17.5154C28.1403 17.4017 28.7575 17.3766 29.3697 17.6596L29.3697 17.6596C29.6637 17.7955 30.3492 18.189 30.6385 18.9649C30.9785 19.8772 30.5771 20.768 30.3499 21.2588C29.7545 22.5446 28.3661 23.311 26.9061 23.7603C25.5567 24.1757 24.2121 24.2996 23.5554 24.3362C23.1103 23.8823 22.2427 22.9276 21.5523 21.7453C20.8051 20.4658 20.2991 18.9777 20.6788 17.5847M25.4712 17.3356L21.9791 15.5914C21.1113 16.0447 20.8299 17.0307 20.6788 17.5847M20.6788 17.5847L20.3894 17.5058L20.6788 17.5847ZM26.7675 15.9839C26.4079 15.2915 25.7325 14.3963 24.5247 13.9306L26.7675 15.9839Z" fill="#204977" stroke="#204977" stroke-width="0.6"/>
</svg>
