<svg width="127" height="105" viewBox="0 0 127 105" fill="none" xmlns="http://www.w3.org/2000/svg">
<path d="M47.3505 3.78132C60.296 0.116261 74.3468 -0.501355 87.146 3.94385C111.339 12.3385 128.266 34.4102 126.82 56.3193C126.064 67.6883 121.042 80.4469 114.305 89.8331C96.1502 115.131 46.1802 102.527 21.2481 87.9233C-7.02409 71.3696 -4.92745 38.6847 15.5595 20.7089C23.8161 13.4681 35.0794 7.25135 47.3505 3.78132Z" fill="white"/>
<path d="M65.1304 68.8261V73.3479C65.1304 73.9719 65.6368 74.4784 66.2608 74.4784H77.5652C78.1892 74.4784 78.6957 73.9719 78.6957 73.3479V68.8261C78.6957 68.2021 78.1892 67.6957 77.5652 67.6957H66.2608C65.6368 67.6957 65.1304 68.2021 65.1304 68.8261ZM67.3912 69.9565H76.4346V72.2173H67.3912V69.9565Z" fill="black"/>
<path d="M84.3478 27H43.6521C40.5367 27 38 29.5367 38 32.6521V73.3478C38 76.4632 40.5367 78.9999 43.6521 78.9999H84.3478C87.4632 78.9999 89.9999 76.4632 89.9999 73.3478V32.6521C90 29.5367 87.4633 27 84.3478 27ZM87.7391 73.3478C87.7391 75.2175 86.2175 76.7391 84.3478 76.7391H43.6521C41.7824 76.7391 40.2608 75.2175 40.2608 73.3478V38.3044H87.7391V73.3478ZM87.7391 36.0434H40.2608V32.6521C40.2608 30.7824 41.7824 29.2608 43.6521 29.2608H84.3478C86.2175 29.2608 87.7391 30.7824 87.7391 32.6521V36.0434Z" fill="black"/>
<path d="M43.6522 31.5218C43.0282 31.5218 42.5217 32.0282 42.5217 32.6522C42.5217 33.2762 43.0282 33.7826 43.6522 33.7826C44.2762 33.7826 44.7827 33.2761 44.7827 32.6521C44.7827 32.0281 44.2762 31.5218 43.6522 31.5218Z" fill="black"/>
<path d="M50.4347 74.4782H61.739C62.363 74.4782 62.8695 73.9718 62.8695 73.3478V68.826C62.8695 68.202 62.363 67.6955 61.739 67.6955H50.4347C49.8107 67.6955 49.3042 68.202 49.3042 68.826V73.3478C49.3043 73.9718 49.8107 74.4782 50.4347 74.4782ZM51.5651 69.9565H60.6086V72.2173H51.5651V69.9565Z" fill="black"/>
<path d="M52.6957 31.5218C52.0717 31.5218 51.5652 32.0282 51.5652 32.6522C51.5652 33.2762 52.0717 33.7826 52.6957 33.7826C53.3197 33.7826 53.8261 33.2761 53.8261 32.6521C53.8261 32.0281 53.3197 31.5218 52.6957 31.5218Z" fill="black"/>
<path d="M48.1739 31.5218C47.5499 31.5218 47.0435 32.0282 47.0435 32.6522C47.0435 33.2762 47.5499 33.7826 48.1739 33.7826C48.7979 33.7826 49.3044 33.2761 49.3044 32.6521C49.3044 32.0281 48.7979 31.5218 48.1739 31.5218Z" fill="black"/>
<path d="M55.2142 61.7993C55.2414 61.8264 55.273 61.8445 55.3002 61.8693C55.8406 62.3983 56.4239 62.8821 57.0523 63.3072C57.1247 63.3569 57.2038 63.3954 57.2784 63.4451C57.8798 63.8339 58.5106 64.1776 59.1775 64.4603C59.2567 64.4942 59.338 64.5167 59.4171 64.5484C60.0931 64.8175 60.794 65.0368 61.5219 65.186C61.5672 65.195 61.6123 65.1973 61.6554 65.2063C62.415 65.351 63.1972 65.4347 63.9999 65.4347C64.8026 65.4347 65.5848 65.3511 66.3445 65.2063C66.3897 65.1973 66.4349 65.195 66.4779 65.186C67.2059 65.039 67.9068 64.8175 68.5827 64.5484C68.6619 64.5167 68.7433 64.4942 68.8224 64.4603C69.4893 64.1799 70.1201 63.834 70.7215 63.4451C70.7961 63.3976 70.8753 63.3569 70.9475 63.3072C71.5761 62.8821 72.1594 62.3983 72.6997 61.8693C72.7268 61.8422 72.7585 61.8241 72.7856 61.7993C72.7902 61.7947 72.7902 61.7857 72.7946 61.7811C75.0419 59.5293 76.4347 56.4251 76.4347 52.9999C76.4347 46.1427 70.8571 40.5652 63.9999 40.5652C57.1427 40.5652 51.5652 46.1427 51.5652 52.9999C51.5652 56.4251 52.9578 59.5293 55.2052 61.7811C55.2097 61.7857 55.2097 61.7947 55.2142 61.7993ZM70.1088 61.0825C69.8714 61.2611 69.6363 61.442 69.3853 61.5958C69.1818 61.7224 68.9648 61.8264 68.7523 61.9395C65.8132 63.4474 62.1867 63.4474 59.2476 61.9395C59.0352 61.8264 58.8181 61.7224 58.6146 61.5958C58.3637 61.442 58.1285 61.2612 57.8911 61.0825C57.7126 60.9469 57.543 60.8022 57.3734 60.6552C58.5694 58.0778 61.14 56.3912 64 56.3912C66.8601 56.3912 69.4307 58.0778 70.6289 60.6552C70.4593 60.8022 70.2874 60.9469 70.1088 61.0825ZM60.6086 50.7391C60.6086 48.8693 62.1301 47.3478 63.9999 47.3478C65.8697 47.3478 67.3912 48.8693 67.3912 50.7391C67.3912 52.6088 65.8697 54.1304 63.9999 54.1304C62.1301 54.1304 60.6086 52.6088 60.6086 50.7391ZM63.9999 42.826C69.6091 42.826 74.1738 47.3907 74.1738 52.9999C74.1738 55.2088 73.4481 57.239 72.2476 58.9098C71.1985 57.1259 69.6181 55.7401 67.7507 54.9352C68.9083 53.8974 69.6521 52.4098 69.6521 50.739C69.6521 47.6235 67.1154 45.0868 63.9999 45.0868C60.8845 45.0868 58.3478 47.6236 58.3478 50.7391C58.3478 52.4098 59.0916 53.8975 60.2491 54.9329C58.3817 55.7378 56.8014 57.1237 55.7523 58.9075C54.5518 57.239 53.826 55.2088 53.826 52.9999C53.826 47.3907 58.3907 42.826 63.9999 42.826Z" fill="black"/>
</svg>
