<svg width="127" height="105" viewBox="0 0 127 105" fill="none" xmlns="http://www.w3.org/2000/svg">
<path d="M47.3505 3.78132C60.296 0.116261 74.3468 -0.501355 87.146 3.94385C111.339 12.3385 128.266 34.4102 126.82 56.3193C126.064 67.6883 121.042 80.4469 114.305 89.8331C96.1502 115.131 46.1802 102.527 21.2481 87.9233C-7.02409 71.3696 -4.92745 38.6847 15.5595 20.7089C23.8161 13.4681 35.0794 7.25135 47.3505 3.78132Z" fill="white"/>
<g clip-path="url(#clip0)">
<path d="M85.7027 47.0089L84.1294 46.1006L84.5125 45.4371C85.4183 43.8682 84.8788 41.8549 83.31 40.9492C81.7411 40.0434 79.7279 40.5828 78.8221 42.1517L76.9402 45.4113V38.0867C76.9741 38.0907 77.0085 38.0926 77.0434 38.0926H85.2539C85.7423 38.0926 86.1384 37.6966 86.1384 37.2082V35.2919C86.1384 32.2683 83.6785 29.8084 80.6549 29.8084H45.985C43.1564 29.8084 40.8552 32.1096 40.8552 34.9381V36.5301C40.8552 37.0185 41.2513 37.4145 41.7397 37.4145C42.228 37.4145 42.6241 37.0185 42.6241 36.5301V34.9381C42.6241 33.085 44.1318 31.5773 45.985 31.5773H76.6258C75.7237 32.5549 75.1713 33.8599 75.1713 35.2919V48.4751L70.2314 57.0313C70.0993 57.2602 70.082 57.5232 70.16 57.7554L66.99 63.2458L62.7258 70.6316C62.516 70.995 62.5905 71.4559 62.9042 71.7348C63.0711 71.8832 63.2812 71.9582 63.492 71.9582C63.6774 71.9582 63.8634 71.9001 64.0208 71.7827L64.6044 71.3473C65.8384 70.4262 67.3696 69.9285 68.9063 69.9447C68.9095 69.9448 68.9126 69.9448 68.9158 69.9448C69.2294 69.9448 69.5197 69.7788 69.6786 69.5081L70.9328 67.3708C71.1332 67.0295 71.427 66.7573 71.7826 66.5839C71.7924 66.5791 71.8013 66.5733 71.8108 66.5683C71.8219 66.5624 71.833 66.5563 71.844 66.5499C71.8668 66.5364 71.8886 66.522 71.9097 66.5069C71.9166 66.502 71.9238 66.4977 71.9305 66.4925C71.9583 66.4714 71.9844 66.4487 72.009 66.4249C72.0152 66.4191 72.0207 66.4127 72.0266 66.4066C72.0464 66.3864 72.065 66.3655 72.0825 66.3436C72.0885 66.3363 72.0943 66.329 72.1 66.3215C72.1223 66.292 72.1432 66.2616 72.1615 66.2296L75.1713 61.0162V73.3226H42.6241V43.6056C42.6241 43.1172 42.228 42.7211 41.7397 42.7211C41.2513 42.7211 40.8552 43.1172 40.8552 43.6056V74.2071C40.8552 74.6955 41.2513 75.0915 41.7397 75.0915H76.0558C76.5442 75.0915 76.9402 74.6955 76.9402 74.2071V58.5526L83.245 47.6325L84.0523 48.0986L79.3176 56.2995C79.0733 56.7225 79.2183 57.2633 79.6413 57.5076C79.7806 57.588 79.9326 57.6263 80.0826 57.6263C80.3883 57.6263 80.6856 57.4676 80.8494 57.1839L86.0264 48.2171C86.2707 47.794 86.1257 47.2532 85.7027 47.0089ZM76.9402 35.2919C76.9402 33.2436 78.6066 31.5773 80.6549 31.5773C82.7031 31.5773 84.3695 33.2436 84.3695 35.2919V36.3238H77.0434C77.0085 36.3238 76.9741 36.3257 76.9402 36.3297V35.2919ZM69.407 66.4754L68.4032 68.186C67.5474 68.2283 66.7009 68.3963 65.8951 68.68L68.0796 64.8963L69.8226 65.9026C69.668 66.0795 69.5277 66.27 69.407 66.4754ZM71.0709 64.5807L68.9641 63.3643L71.5811 58.8318L73.6878 60.0481L71.0709 64.5807ZM74.8321 58.6663L72.2055 57.1498L79.0865 45.2316L81.7131 46.7481L74.8321 58.6663ZM82.9807 44.5526L82.5975 45.2161L79.9709 43.6997L80.3541 43.0362C80.7722 42.312 81.7013 42.063 82.4257 42.4811C83.1498 42.8992 83.3987 43.8285 82.9807 44.5526Z" fill="black"/>
<path d="M45.6311 48.2982V50.6804C45.6311 51.1688 46.0272 51.5648 46.5155 51.5648H62.7887C63.2771 51.5648 63.6732 51.1688 63.6732 50.6804V48.2982C63.6732 45.8519 61.683 43.8617 59.2368 43.8617H57.4678C58.0264 43.2118 58.3652 42.3676 58.3652 41.4454V39.7932C58.9826 39.3408 59.3844 38.6108 59.3844 37.7884V35.4681C59.3844 34.9797 58.9884 34.5836 58.5 34.5836H55.0352C52.7766 34.5836 50.9391 36.4212 50.9391 38.6797V39.3887V41.4454C50.9391 42.3677 51.278 43.2118 51.8366 43.8617H50.0674C47.6213 43.8617 45.6311 45.8519 45.6311 48.2982ZM47.4 48.2982C47.4 46.8273 48.5966 45.6306 50.0674 45.6306H52.2322V49.7959H47.4V48.2982ZM54.0011 45.1C54.2126 45.1376 54.43 45.1584 54.6522 45.1584C54.8743 45.1584 55.0917 45.1377 55.3033 45.1V49.7959H54.001V45.1H54.0011ZM56.5963 41.4454C56.5963 42.5174 55.7241 43.3895 54.6522 43.3895C53.5802 43.3895 52.708 42.5174 52.708 41.4454V40.2731H56.5963V41.4454H56.5963ZM61.9043 48.2982V49.7959H57.0722V45.6306H59.2368C60.7077 45.6306 61.9043 46.8273 61.9043 48.2982ZM55.0352 36.3525H57.6156V37.7883C57.6156 38.1831 57.2944 38.5043 56.8996 38.5043H52.7146C52.8045 37.3027 53.811 36.3525 55.0352 36.3525Z" fill="black"/>
<path d="M46.5155 57.1369H63.4967C63.9851 57.1369 64.3812 56.7408 64.3812 56.2524C64.3812 55.7641 63.9851 55.368 63.4967 55.368H46.5155C46.0272 55.368 45.6311 55.7641 45.6311 56.2524C45.6311 56.7408 46.0272 57.1369 46.5155 57.1369Z" fill="black"/>
<path d="M46.5155 62.0896H63.4967C63.9851 62.0896 64.3812 61.6936 64.3812 61.2052C64.3812 60.7168 63.9851 60.3208 63.4967 60.3208H46.5155C46.0272 60.3208 45.6311 60.7168 45.6311 61.2052C45.6311 61.6936 46.0272 62.0896 46.5155 62.0896Z" fill="black"/>
<path d="M46.5155 67.0426H55.0061C55.4945 67.0426 55.8906 66.6466 55.8906 66.1582C55.8906 65.6698 55.4945 65.2737 55.0061 65.2737H46.5155C46.0272 65.2737 45.6311 65.6698 45.6311 66.1582C45.6311 66.6466 46.0272 67.0426 46.5155 67.0426Z" fill="black"/>
<path d="M66.7692 41.6725H71.3946C71.883 41.6725 72.2791 41.2765 72.2791 40.7881C72.2791 40.2997 71.883 39.9037 71.3946 39.9037H66.7692C66.2808 39.9037 65.8848 40.2997 65.8848 40.7881C65.8848 41.2766 66.2808 41.6725 66.7692 41.6725Z" fill="black"/>
<path d="M66.7692 46.6255H71.3946C71.883 46.6255 72.2791 46.2295 72.2791 45.7411C72.2791 45.2527 71.883 44.8567 71.3946 44.8567H66.7692C66.2808 44.8567 65.8848 45.2527 65.8848 45.7411C65.8848 46.2295 66.2808 46.6255 66.7692 46.6255Z" fill="black"/>
<path d="M66.7692 51.5651H71.3946C71.883 51.5651 72.2791 51.169 72.2791 50.6806C72.2791 50.1923 71.883 49.7962 71.3946 49.7962H66.7692C66.2808 49.7962 65.8848 50.1923 65.8848 50.6806C65.8848 51.169 66.2808 51.5651 66.7692 51.5651Z" fill="black"/>
<path d="M57.9186 65.5325C57.7541 65.6969 57.6594 65.9251 57.6594 66.1577C57.6594 66.3913 57.754 66.6185 57.9186 66.783C58.0832 66.9475 58.3104 67.0421 58.5439 67.0421C58.7765 67.0421 59.0046 66.9476 59.1691 66.783C59.3336 66.6185 59.4283 66.3912 59.4283 66.1577C59.4283 65.9251 59.3337 65.6969 59.1691 65.5325C59.0046 65.368 58.7765 65.2733 58.5439 65.2733C58.3103 65.2733 58.0831 65.3679 57.9186 65.5325Z" fill="black"/>
<path d="M41.7397 40.9514C41.9723 40.9514 42.2005 40.8576 42.3649 40.6923C42.5294 40.5278 42.6241 40.2996 42.6241 40.067C42.6241 39.8344 42.5295 39.6062 42.3649 39.4418C42.2005 39.2772 41.9723 39.1825 41.7397 39.1825C41.5071 39.1825 41.2789 39.2772 41.1144 39.4418C40.9499 39.6062 40.8552 39.8344 40.8552 40.067C40.8552 40.3005 40.9498 40.5278 41.1144 40.6923C41.2789 40.8577 41.5071 40.9514 41.7397 40.9514Z" fill="black"/>
</g>
<defs>
<clipPath id="clip0">
<rect width="45.2899" height="45.2899" fill="white" transform="translate(40.8552 29.8044)"/>
</clipPath>
</defs>
</svg>
