<svg width="38" height="38" viewBox="0 0 38 38" fill="none" xmlns="http://www.w3.org/2000/svg">
<g clip-path="url(#clip0)">
<path d="M26.8585 23.8774L25.0328 20.9348C26.9489 23.3155 30.4942 23.4338 32.564 21.2329C34.4539 19.2232 34.3574 16.0672 32.3476 14.177C30.3388 12.2877 27.1821 12.3835 25.2918 14.3935C23.8397 15.9377 23.5763 18.1333 24.3939 19.9049L19.9776 12.7871L26.5312 10.8959C28.5665 10.3086 29.5284 7.97888 28.4943 6.12586C27.7434 4.78042 26.185 4.13902 24.7048 4.56623L14.7829 7.42929C12.2104 8.1717 11.0584 11.1621 12.4709 13.4389L15.4698 18.2722L10.2104 21.5355C16.5378 21.6809 21.1095 23.6074 26.8585 23.8774Z" fill="#438E2B"/>
<path d="M1.41773 27.1559C15.8011 23.0672 21.2332 31.3215 37.1674 27.1622C37.7624 27.0069 38.1187 26.3987 37.9634 25.8039C37.8082 25.209 37.1999 24.8527 36.6051 25.0079C21.2964 29.0041 15.8568 20.7366 0.808916 25.0142C0.217541 25.1823 -0.125647 25.798 0.0424588 26.3894C0.210638 26.981 0.82658 27.324 1.41773 27.1559Z" fill="#438E2B"/>
<path d="M36.6051 30.2032C21.2683 34.2067 15.8866 25.9233 0.808916 30.2095C0.217541 30.3776 -0.125647 30.9933 0.0424588 31.5847C0.210564 32.1762 0.826506 32.5194 1.41773 32.3512C15.8011 28.2625 21.2332 36.5168 37.1674 32.3575C37.7624 32.2022 38.1187 31.594 37.9634 30.9992C37.8082 30.4042 37.1999 30.0479 36.6051 30.2032Z" fill="#438E2B"/>
</g>
<defs>
<clipPath id="clip0">
<rect width="38" height="38" fill="white"/>
</clipPath>
</defs>
</svg>
