<svg width="38" height="38" viewBox="0 0 38 38" fill="none" xmlns="http://www.w3.org/2000/svg">
<path d="M24.1566 32.1367H5.86328C3.85796 32.1367 2.22656 30.5053 2.22656 28.5C2.22656 26.4947 3.85796 24.8633 5.86328 24.8633H12.9883C16.2213 24.8633 18.8516 22.233 18.8516 19C18.8516 15.767 16.2213 13.1367 12.9883 13.1367H9.09343C9.1649 13.497 9.20312 13.869 9.20312 14.25C9.20312 14.631 9.1649 15.003 9.09343 15.3633H12.9883C14.9936 15.3633 16.625 16.9947 16.625 19C16.625 21.0053 14.9936 22.6367 12.9883 22.6367H5.86328C2.63024 22.6367 0 25.267 0 28.5C0 31.733 2.63024 34.3633 5.86328 34.3633H24.1566C24.0851 34.003 24.0469 33.631 24.0469 33.25C24.0469 32.869 24.0851 32.497 24.1566 32.1367Z" fill="#AD9747"/>
<path d="M29.7617 29.7617C27.8383 29.7617 26.2734 31.3265 26.2734 33.25C26.2734 35.1735 27.8383 36.7383 29.7617 36.7383C31.6852 36.7383 33.25 35.1735 33.25 33.25C33.25 31.3265 31.6852 29.7617 29.7617 29.7617Z" fill="#AD9747"/>
<path d="M10.6133 1.26172H3.48828C2.87345 1.26172 2.375 1.76017 2.375 2.375C2.375 3.2945 2.375 10.015 2.375 10.945C0.996016 11.4108 0 12.7158 0 14.25C0 16.1735 1.56483 17.7383 3.48828 17.7383C5.41173 17.7383 6.97656 16.1735 6.97656 14.25C6.97656 12.7158 5.98055 11.4108 4.60156 10.945V8.23828H10.6133C11.2281 8.23828 11.7266 7.73983 11.7266 7.125V2.375C11.7266 1.76017 11.2281 1.26172 10.6133 1.26172Z" fill="#AD9747"/>
<path d="M29.7617 3.63672C25.2191 3.63672 21.5234 7.33237 21.5234 11.875C21.5234 14.328 22.5921 16.6134 24.4644 18.1847L28.7699 26.6306C29.1822 27.4395 30.3413 27.4394 30.7536 26.6306L35.059 18.1847C36.9313 16.6134 38 14.328 38 11.875C38 7.33237 34.3044 3.63672 29.7617 3.63672ZM29.7617 15.3633C27.8383 15.3633 26.2734 13.7985 26.2734 11.875C26.2734 9.95155 27.8383 8.38672 29.7617 8.38672C31.6852 8.38672 33.25 9.95155 33.25 11.875C33.25 13.7985 31.6852 15.3633 29.7617 15.3633Z" fill="#AD9747"/>
</svg>
