<svg width="40" height="40" viewBox="0 0 40 40" fill="none" xmlns="http://www.w3.org/2000/svg">
<path d="M17.5 9.37499V10.625C17.5 12.0037 18.6212 13.125 20 13.125C21.3788 13.125 22.5 12.0037 22.5 10.625V9.37499C22.5 7.99624 21.3788 6.87499 20 6.87499C18.6212 6.87499 17.5 7.99624 17.5 9.37499Z" fill="#9A599A"/>
<path d="M20 14.375C19.7119 14.375 19.4325 14.3394 19.1625 14.2775C18.9725 14.5794 18.7338 14.8369 18.4575 15.045C19.3281 15.7744 20.6725 15.7744 21.5425 15.045C21.2663 14.8369 21.0269 14.5794 20.8375 14.2775C20.5675 14.3394 20.2882 14.375 20 14.375Z" fill="#9A599A"/>
<path d="M23.75 20.625V21.875H33.75V19.1362C33.75 18.2344 33.0162 17.5 32.1138 17.5H32.0225C31.8619 17.5 31.705 17.4831 31.5506 17.4581L31.3256 17.6831C30.6381 18.3712 29.7231 18.75 28.75 18.75C27.8113 18.75 26.9288 18.3944 26.25 17.7519V20C26.25 20.3456 25.97 20.625 25.625 20.625H23.75Z" fill="#9A599A"/>
<path d="M28.75 16.25C28.4619 16.25 28.1825 16.2144 27.9125 16.1525C27.7225 16.4544 27.4838 16.7119 27.2075 16.92C28.0781 17.6494 29.4225 17.6494 30.2925 16.92C30.0163 16.7119 29.7769 16.4544 29.5875 16.1525C29.3175 16.2144 29.0381 16.25 28.75 16.25Z" fill="#9A599A"/>
<path d="M15 17.2612V19.375H25V17.2612C25 16.3594 24.2662 15.625 23.3638 15.625H23.2725C23.1119 15.625 22.955 15.6081 22.8006 15.5831L22.5756 15.8081C21.8881 16.4962 20.9731 16.875 20 16.875C19.0269 16.875 18.1119 16.4962 17.4244 15.8081L17.1994 15.5831C17.045 15.6081 16.8881 15.625 16.7275 15.625H16.6363C15.7337 15.625 15 16.3594 15 17.2612Z" fill="#9A599A"/>
<path d="M8.75 12.5C8.75 13.8787 9.87125 15 11.25 15C12.6288 15 13.75 13.8787 13.75 12.5V11.25C13.75 9.87124 12.6288 8.74999 11.25 8.74999C9.87125 8.74999 8.75 9.87124 8.75 11.25V12.5Z" fill="#9A599A"/>
<path d="M16.25 20.625H14.375C14.03 20.625 13.75 20.3456 13.75 20V17.7519C13.0712 18.3944 12.1887 18.75 11.25 18.75C10.2769 18.75 9.36187 18.3712 8.67437 17.6831L8.44938 17.4581C8.295 17.4831 8.13812 17.5 7.9775 17.5H7.88625C6.98375 17.5 6.25 18.2344 6.25 19.1362V21.875H16.25V20.625Z" fill="#9A599A"/>
<path d="M11.25 16.25C10.9619 16.25 10.6825 16.2144 10.4125 16.1525C10.2225 16.4544 9.98377 16.7119 9.70752 16.92C10.5781 17.6494 11.9225 17.6494 12.7925 16.92C12.5163 16.7119 12.2769 16.4544 12.0875 16.1525C11.8175 16.2144 11.5381 16.25 11.25 16.25Z" fill="#9A599A"/>
<path d="M28.75 15C30.1288 15 31.25 13.8787 31.25 12.5V11.25C31.25 9.87124 30.1288 8.74999 28.75 8.74999C27.3712 8.74999 26.25 9.87124 26.25 11.25V12.5C26.25 13.8787 27.3712 15 28.75 15Z" fill="#9A599A"/>
<path d="M6.875 25.625H9.375V36.875H6.875V25.625Z" fill="#9A599A"/>
<path d="M35.7625 28.2806L23.0056 31.76C23.0369 32.4106 22.8125 33.0712 22.3169 33.5669C21.8506 34.0331 21.2375 34.2662 20.625 34.2662C20.0125 34.2662 19.3994 34.0331 18.9331 33.5669L15.8081 30.4419L16.6919 29.5581L19.8169 32.6831C20.2625 33.1287 20.9875 33.1287 21.4331 32.6831C21.8787 32.2375 21.8787 31.5125 21.4331 31.0669L17.2413 26.875H10.625V35.625H15C15.0669 35.625 15.1337 35.6362 15.1975 35.6575L18.7469 36.8406L38.125 30.1787V30C38.125 29.6431 38.0244 29.295 37.8331 28.995C37.425 28.3525 36.5738 28.0587 35.7625 28.2806Z" fill="#9A599A"/>
<path d="M1.875 38.125H5.625V37.5V25.625H1.875V38.125Z" fill="#9A599A"/>
<path d="M23.2457 0.895624C22.8339 0.826248 22.4089 0.768748 21.9814 0.724998L21.8545 1.96875C22.2526 2.00875 22.647 2.06187 23.037 2.12875L23.2457 0.895624Z" fill="#9A599A"/>
<path d="M39.3713 19.6219L38.1213 19.6462C38.1238 19.7644 38.1251 19.8825 38.1251 20C38.1251 20.2812 38.1188 20.5619 38.1057 20.84L39.3545 20.8975C39.3682 20.6 39.3751 20.3006 39.3751 20C39.3751 19.8737 39.3738 19.7475 39.3713 19.6219Z" fill="#9A599A"/>
<path d="M37.8413 23.2119L39.0719 23.4331C39.1463 23.0175 39.2082 22.5925 39.2551 22.17L38.0126 22.0312C37.9688 22.4287 37.9113 22.8225 37.8413 23.2119Z" fill="#9A599A"/>
<path d="M28.1119 2.39936C27.7244 2.22061 27.3282 2.05373 26.9344 1.90311L26.4875 3.06998C26.8607 3.21311 27.2275 3.36811 27.5882 3.53436L28.1119 2.39936Z" fill="#9A599A"/>
<path d="M25.7262 1.48499C25.3212 1.36062 24.9112 1.24812 24.4956 1.14937L24.2056 2.36499C24.5949 2.45749 24.9787 2.56249 25.3574 2.67999L25.7262 1.48499Z" fill="#9A599A"/>
<path d="M30.3536 3.62062C29.9974 3.395 29.6268 3.17687 29.2524 2.97312L28.6555 4.07187C29.0055 4.2625 29.3486 4.46375 29.6843 4.67687L30.3536 3.62062Z" fill="#9A599A"/>
<path d="M37.2668 25.5281L38.4575 25.9087C38.5875 25.5025 38.7043 25.0887 38.8056 24.68L37.5925 24.38C37.4962 24.7681 37.3875 25.1506 37.2668 25.5281Z" fill="#9A599A"/>
<path d="M34.8376 9.58874L35.8601 8.86999C35.6158 8.52187 35.3595 8.18187 35.0933 7.85124L34.1189 8.63499C34.3689 8.94499 34.6089 9.26249 34.8376 9.58874Z" fill="#9A599A"/>
<path d="M37.0387 13.8044L38.2137 13.3769C38.0681 12.9769 37.9081 12.5794 37.7387 12.1944L36.595 12.6987C36.7543 13.0612 36.9025 13.43 37.0387 13.8044Z" fill="#9A599A"/>
<path d="M4.58303 10.465L3.52115 9.80561C3.29803 10.1656 3.08365 10.5381 2.88428 10.9125L3.9874 11.5C4.1749 11.1481 4.37303 10.8031 4.58303 10.465Z" fill="#9A599A"/>
<path d="M36.0775 11.625L37.1856 11.0462C36.99 10.6719 36.7793 10.2987 36.5587 9.93686L35.4912 10.5862C35.6981 10.925 35.8937 11.2719 36.0775 11.625Z" fill="#9A599A"/>
<path d="M34.2608 6.88436C33.9764 6.57498 33.6752 6.26873 33.3664 5.97436L32.5039 6.87873C32.7914 7.15311 33.0708 7.43686 33.3402 7.72998L34.2608 6.88436Z" fill="#9A599A"/>
<path d="M37.7038 16.095L38.9244 15.8262C38.8332 15.4112 38.7276 14.9956 38.6101 14.59L37.4094 14.9381C37.5194 15.3194 37.6175 15.705 37.7038 16.095Z" fill="#9A599A"/>
<path d="M32.4149 5.12436C32.0886 4.85249 31.7499 4.58749 31.4092 4.33874L30.6724 5.34811C30.9942 5.58312 31.308 5.82874 31.613 6.08374L32.4149 5.12436Z" fill="#9A599A"/>
<path d="M38.0599 18.4537L39.3055 18.3475C39.2693 17.9212 39.2193 17.4994 39.1562 17.0812L37.9199 17.2681C37.9799 17.6594 38.0262 18.055 38.0599 18.4537Z" fill="#9A599A"/>
<path d="M11.468 4.00436L10.8793 2.90186C10.5043 3.10186 10.133 3.31624 9.7749 3.53999L10.4368 4.60061C10.7724 4.39061 11.1168 4.19186 11.468 4.00436Z" fill="#9A599A"/>
<path d="M9.44424 5.26312L8.71424 4.24874C8.36924 4.49687 8.03174 4.75624 7.70361 5.02562L8.49799 5.99125C8.80486 5.73874 9.12111 5.49562 9.44424 5.26312Z" fill="#9A599A"/>
<path d="M13.6387 3.02312L13.2 1.85249C12.8018 2.00187 12.4056 2.16562 12.0225 2.33874L12.5375 3.47749C12.8987 3.31437 13.2662 3.16312 13.6387 3.02312Z" fill="#9A599A"/>
<path d="M4.22876 8.74374L5.24501 9.47124C5.47751 9.14687 5.71938 8.83062 5.97188 8.52187L5.00376 7.73124C4.73501 8.05999 4.47626 8.39811 4.22876 8.74374Z" fill="#9A599A"/>
<path d="M7.60059 6.78124L6.74685 5.86812C6.44122 6.15374 6.1381 6.45749 5.84497 6.77124L6.75872 7.62437C7.03185 7.33062 7.3156 7.04687 7.60059 6.78124Z" fill="#9A599A"/>
<path d="M3.46129 12.5737L2.32191 12.0612C2.14879 12.445 1.98566 12.8431 1.83691 13.2431L3.00817 13.6787C3.14692 13.3044 3.29817 12.9356 3.46129 12.5737Z" fill="#9A599A"/>
<path d="M2.62881 14.8094L1.43068 14.4519C1.30943 14.86 1.20006 15.275 1.10693 15.6869L2.32568 15.9637C2.41443 15.5737 2.51568 15.1894 2.62881 14.8094Z" fill="#9A599A"/>
<path d="M15.9218 2.33498L15.6431 1.11685C15.2306 1.21123 14.8149 1.32123 14.4087 1.44373L14.7699 2.63997C15.1487 2.52623 15.5362 2.42373 15.9218 2.33498Z" fill="#9A599A"/>
<path d="M18.2768 1.95624L18.1605 0.711243C17.7418 0.749993 17.3155 0.804368 16.8943 0.873118L17.0937 2.10749C17.4843 2.04437 17.8787 1.99249 18.2768 1.95624Z" fill="#9A599A"/>
<path d="M1.875 20C1.875 19.8362 1.87688 19.6744 1.88125 19.5125L0.631875 19.4781C0.626875 19.6506 0.625 19.8256 0.625 20.0006C0.625 20.2525 0.63 20.5037 0.639375 20.7537L1.88875 20.7062C1.87938 20.4719 1.875 20.2356 1.875 20Z" fill="#9A599A"/>
<path d="M2.09991 17.1356L0.864912 16.9406C0.798662 17.3594 0.745537 17.785 0.706787 18.2056L1.95116 18.3206C1.98804 17.9212 2.03804 17.5262 2.09991 17.1356Z" fill="#9A599A"/>
<path d="M19.9463 1.87499C20.1838 1.87374 20.4263 1.87874 20.6644 1.88686L20.7075 0.638112C20.4731 0.629362 20.2369 0.624987 20.0019 0.624987C19.8106 0.624362 19.6213 0.626862 19.4319 0.632487L19.47 1.88249C19.6275 1.87749 19.7856 1.87499 19.9463 1.87499Z" fill="#9A599A"/>
<path d="M1.97311 21.8975L0.72998 22.0269C0.774355 22.4531 0.83248 22.8737 0.90373 23.2906L2.13623 23.0794C2.06873 22.69 2.01436 22.2956 1.97311 21.8975Z" fill="#9A599A"/>
</svg>
