<svg width="21" height="21" viewBox="0 0 21 21" fill="none" xmlns="http://www.w3.org/2000/svg">
<g clip-path="url(#clip0)">
<path d="M10.5029 10.389C11.8216 10.389 12.9636 9.91603 13.8966 8.98284C14.8296 8.0498 15.3026 6.90818 15.3026 5.58928C15.3026 4.27084 14.8296 3.12906 13.8964 2.19572C12.9633 1.26284 11.8215 0.789856 10.5029 0.789856C9.18397 0.789856 8.04234 1.26284 7.1093 2.19587C6.17626 3.12891 5.70312 4.27068 5.70312 5.58928C5.70312 6.90818 6.17626 8.04996 7.10945 8.98299C8.04264 9.91587 9.18442 10.389 10.5029 10.389V10.389Z" fill="#DD1D22"/>
<path d="M18.9013 16.1131C18.8744 15.7248 18.8199 15.3012 18.7398 14.854C18.6589 14.4033 18.5548 13.9773 18.4301 13.588C18.3013 13.1855 18.1262 12.7881 17.9097 12.4073C17.685 12.012 17.4211 11.6678 17.1249 11.3845C16.8152 11.0882 16.436 10.85 15.9976 10.6762C15.5606 10.5033 15.0764 10.4158 14.5584 10.4158C14.355 10.4158 14.1582 10.4992 13.7783 10.7466C13.5445 10.8991 13.271 11.0754 12.9657 11.2705C12.7046 11.4368 12.351 11.5927 11.9142 11.7338C11.488 11.8717 11.0553 11.9416 10.6283 11.9416C10.2012 11.9416 9.76868 11.8717 9.34207 11.7338C8.90572 11.5928 8.55209 11.437 8.29135 11.2707C7.98895 11.0774 7.71529 10.9011 7.47796 10.7464C7.09848 10.4991 6.9016 10.4156 6.69818 10.4156C6.18004 10.4156 5.69596 10.5033 5.25916 10.6764C4.821 10.8498 4.44167 11.0881 4.13167 11.3847C3.83566 11.6681 3.57158 12.0121 3.34717 12.4073C3.13083 12.7881 2.95568 13.1854 2.82676 13.5881C2.70224 13.9775 2.59809 14.4033 2.51721 14.854C2.43709 15.3006 2.38266 15.7244 2.35575 16.1136C2.3293 16.4949 2.31592 16.8906 2.31592 17.2903C2.31592 18.3305 2.64659 19.1727 3.29867 19.7937C3.94269 20.4066 4.79485 20.7175 5.83112 20.7175H15.4264C16.4626 20.7175 17.3145 20.4067 17.9587 19.7937C18.6109 19.1731 18.9416 18.3308 18.9416 17.2902C18.9414 16.8886 18.9279 16.4926 18.9013 16.1131V16.1131Z" fill="#DD1D22"/>
</g>
<defs>
<clipPath id="clip0">
<rect width="19.9275" height="19.9275" fill="white" transform="translate(0.681152 0.789856)"/>
</clipPath>
</defs>
</svg>
