<svg width="22" height="22" viewBox="0 0 22 22" fill="none" xmlns="http://www.w3.org/2000/svg">
<path d="M11 0C6.35315 0 0 3.51221 0 11C0 18.2972 6.11063 22 11 22C19.3886 22 22 14.6508 22 11C22 5.6126 17.8772 0 11 0ZM8.44921 1.03504C7.30158 2.01378 6.34882 3.63346 5.73386 5.64291C4.93701 5.17087 4.20512 4.58622 3.55551 3.9063C4.89803 2.49882 6.59567 1.51142 8.44921 1.03504ZM3.08346 4.43465C3.81102 5.19252 4.63819 5.8378 5.53898 6.34882C5.20118 7.66102 5.00197 9.11614 4.97598 10.6449H0.718898C0.79685 8.3626 1.62835 6.18425 3.08346 4.43465ZM3.08346 17.5654C1.62402 15.8157 0.79685 13.6374 0.718898 11.3551H4.97598C5.00197 12.8882 5.20118 14.339 5.53898 15.6512C4.64252 16.1665 3.81535 16.8075 3.08346 17.5654ZM3.55551 18.098C4.20512 17.4181 4.93701 16.8335 5.73386 16.3614C6.34882 18.3665 7.30158 19.9906 8.44921 20.9693C6.59567 20.4886 4.89803 19.5012 3.55551 18.098ZM10.6449 21.2638C8.8 21.0299 7.21063 18.9685 6.35315 16.015C7.67835 15.3437 9.14213 14.9669 10.6449 14.9106V21.2638ZM10.6449 14.2047C9.07717 14.2567 7.55276 14.6421 6.17126 15.3177C5.8811 14.1051 5.70787 12.7669 5.68189 11.3551H10.6449V14.2047V14.2047ZM10.6449 10.6449H5.68189C5.70787 9.23307 5.8811 7.89488 6.17126 6.68228C7.55709 7.35787 9.0815 7.74331 10.6449 7.79528V10.6449ZM10.6449 7.08937C9.1378 7.0374 7.67835 6.6563 6.35315 5.98504C7.21063 3.02717 8.8 0.970079 10.6449 0.736221V7.08937ZM18.9165 4.43465C20.3717 6.18425 21.2032 8.3626 21.2811 10.6449H17.0283C17.0024 9.11181 16.8032 7.66102 16.4654 6.34882C17.3618 5.83347 18.189 5.19252 18.9165 4.43465ZM18.4445 3.90197C17.7949 4.58189 17.063 5.16654 16.2661 5.63858C15.6512 3.63346 14.6984 2.01378 13.5508 1.03071C15.4043 1.51142 17.102 2.49882 18.4445 3.90197ZM11.3551 0.736221C13.2 0.970079 14.7894 3.0315 15.6469 5.98504C14.3217 6.6563 12.8622 7.03307 11.3551 7.08937V0.736221V0.736221ZM11.3551 7.79528C12.9228 7.74331 14.4472 7.35787 15.8287 6.68228C16.1189 7.89488 16.2921 9.23307 16.3181 10.6449H11.3551V7.79528ZM11.3551 11.3551H16.3181C16.2921 12.7669 16.1189 14.1051 15.8287 15.3177C14.4472 14.6378 12.9228 14.2524 11.3551 14.2047V11.3551V11.3551ZM11.3551 21.2638V14.9106C12.8622 14.9626 14.3217 15.3437 15.6469 16.015C14.7894 18.9728 13.2 21.0299 11.3551 21.2638ZM13.5508 20.965C14.6984 19.9862 15.6512 18.3665 16.2661 16.3571C17.063 16.8291 17.7949 17.4138 18.4445 18.0937C17.102 19.5012 15.4043 20.4886 13.5508 20.965ZM18.9165 17.5654C18.189 16.8075 17.3618 16.1665 16.4654 15.6512C16.8032 14.339 17.0024 12.8839 17.0283 11.3551H21.2811C21.2032 13.6374 20.3717 15.8157 18.9165 17.5654Z" fill="#A0A3B1"/>
</svg>
